<svg width="34" height="34" viewBox="0 0 34 34" fill="none" xmlns="http://www.w3.org/2000/svg">
<rect width="34" height="34" rx="17" fill="#E4ECE9"/>
<path d="M23.1875 10.8126V23.7501C23.1875 23.8993 23.1282 24.0424 23.0227 24.1478C22.9173 24.2533 22.7742 24.3126 22.625 24.3126C22.4758 24.3126 22.3327 24.2533 22.2273 24.1478C22.1218 24.0424 22.0625 23.8993 22.0625 23.7501V20.3751H18.6875C18.5383 20.3751 18.3952 20.3158 18.2898 20.2103C18.1843 20.1049 18.125 19.9618 18.125 19.8126C18.1511 18.4652 18.3213 17.1244 18.6327 15.8132C19.3203 12.9663 20.6239 11.058 22.4035 10.2958C22.4891 10.2592 22.5823 10.2443 22.675 10.2526C22.7677 10.2609 22.8569 10.292 22.9346 10.3432C23.0123 10.3944 23.076 10.4641 23.1202 10.546C23.1643 10.628 23.1875 10.7195 23.1875 10.8126ZM16.4298 10.7205C16.4187 10.6466 16.3931 10.5757 16.3544 10.5118C16.3157 10.448 16.2647 10.3925 16.2043 10.3486C16.1439 10.3046 16.0753 10.2732 16.0027 10.256C15.93 10.2389 15.8546 10.2363 15.7809 10.2486C15.7073 10.2609 15.6368 10.2877 15.5736 10.3275C15.5104 10.3673 15.4558 10.4193 15.4129 10.4804C15.37 10.5416 15.3398 10.6106 15.3238 10.6836C15.3079 10.7566 15.3067 10.832 15.3202 10.9054L15.8673 14.1876H14.1875V10.8126C14.1875 10.6634 14.1282 10.5203 14.0227 10.4148C13.9173 10.3094 13.7742 10.2501 13.625 10.2501C13.4758 10.2501 13.3327 10.3094 13.2273 10.4148C13.1218 10.5203 13.0625 10.6634 13.0625 10.8126V14.1876H11.3827L11.9298 10.9054C11.9433 10.832 11.9421 10.7566 11.9262 10.6836C11.9102 10.6106 11.88 10.5416 11.8371 10.4804C11.7942 10.4193 11.7396 10.3673 11.6764 10.3275C11.6132 10.2877 11.5427 10.2609 11.4691 10.2486C11.3954 10.2363 11.32 10.2389 11.2473 10.256C11.1747 10.2732 11.1061 10.3046 11.0457 10.3486C10.9853 10.3925 10.9343 10.448 10.8956 10.5118C10.8569 10.5757 10.8313 10.6466 10.8202 10.7205L10.2577 14.0955C10.2527 14.1259 10.2501 14.1567 10.25 14.1876C10.2511 14.9848 10.534 15.756 11.0487 16.3648C11.5633 16.9736 12.2766 17.3809 13.0625 17.5148V23.7501C13.0625 23.8993 13.1218 24.0424 13.2273 24.1478C13.3327 24.2533 13.4758 24.3126 13.625 24.3126C13.7742 24.3126 13.9173 24.2533 14.0227 24.1478C14.1282 24.0424 14.1875 23.8993 14.1875 23.7501V17.5148C14.9734 17.3809 15.6867 16.9736 16.2013 16.3648C16.716 15.756 16.9989 14.9848 17 14.1876C16.9999 14.1567 16.9973 14.1259 16.9923 14.0955L16.4298 10.7205Z" fill="#1F8459"/>
</svg>
