<svg width="32" height="32" viewBox="0 0 32 32" fill="none" xmlns="http://www.w3.org/2000/svg">
<rect width="32" height="32" rx="8" fill="#1F8459"/>
<path d="M21.0307 16.5306L13.5307 24.0306C13.461 24.1002 13.3783 24.1555 13.2872 24.1932C13.1962 24.2309 13.0986 24.2503 13.0001 24.2503C12.9015 24.2503 12.8039 24.2309 12.7129 24.1932C12.6218 24.1555 12.5391 24.1002 12.4694 24.0306C12.3997 23.9609 12.3445 23.8781 12.3068 23.7871C12.269 23.6961 12.2496 23.5985 12.2496 23.4999C12.2496 23.4014 12.269 23.3038 12.3068 23.2128C12.3445 23.1217 12.3997 23.039 12.4694 22.9693L19.4397 15.9999L12.4694 9.03055C12.3287 8.88982 12.2496 8.69895 12.2496 8.49993C12.2496 8.30091 12.3287 8.11003 12.4694 7.9693C12.6102 7.82857 12.801 7.74951 13.0001 7.74951C13.1991 7.74951 13.3899 7.82857 13.5307 7.9693L21.0307 15.4693C21.1004 15.539 21.1557 15.6217 21.1935 15.7127C21.2312 15.8038 21.2506 15.9014 21.2506 15.9999C21.2506 16.0985 21.2312 16.1961 21.1935 16.2871C21.1557 16.3782 21.1004 16.4609 21.0307 16.5306Z" fill="white"/>
</svg>
