<svg width="32" height="32" viewBox="0 0 32 32" fill="none" xmlns="http://www.w3.org/2000/svg">
<rect width="32" height="32" rx="8" fill="#1F8459"/>
<path d="M19.5306 22.9693C19.6003 23.039 19.6556 23.1217 19.6933 23.2128C19.731 23.3038 19.7504 23.4014 19.7504 23.4999C19.7504 23.5985 19.731 23.6961 19.6933 23.7871C19.6556 23.8781 19.6003 23.9609 19.5306 24.0306C19.4609 24.1002 19.3782 24.1555 19.2872 24.1932C19.1961 24.2309 19.0985 24.2503 19 24.2503C18.9014 24.2503 18.8039 24.2309 18.7128 24.1932C18.6218 24.1555 18.539 24.1002 18.4694 24.0306L10.9694 16.5306C10.8996 16.4609 10.8443 16.3782 10.8066 16.2871C10.7688 16.1961 10.7494 16.0985 10.7494 15.9999C10.7494 15.9014 10.7688 15.8038 10.8066 15.7127C10.8443 15.6217 10.8996 15.539 10.9694 15.4693L18.4694 7.9693C18.6101 7.82857 18.801 7.74951 19 7.74951C19.199 7.74951 19.3899 7.82857 19.5306 7.9693C19.6713 8.11003 19.7504 8.30091 19.7504 8.49993C19.7504 8.69895 19.6713 8.88982 19.5306 9.03055L12.5603 15.9999L19.5306 22.9693Z" fill="white"/>
</svg>
