<svg width="34" height="34" viewBox="0 0 34 34" fill="none" xmlns="http://www.w3.org/2000/svg">
<rect width="34" height="34" rx="17" fill="#E4ECE9"/>
<path d="M24.3125 14.7501C24.3134 15.592 24.1042 16.4209 23.704 17.1616C23.3038 17.9024 22.7252 18.5316 22.0205 18.9923C21.3158 19.4531 20.5074 19.7308 19.6683 19.8004C18.8293 19.8699 17.9861 19.7291 17.2152 19.3907L13.5547 23.6249C13.5463 23.6348 13.5364 23.6453 13.5273 23.6545C13.1053 24.0765 12.5329 24.3136 11.9361 24.3136C11.3393 24.3136 10.7669 24.0765 10.3449 23.6545C9.92293 23.2325 9.68585 22.6601 9.68585 22.0633C9.68585 21.4665 9.92293 20.8941 10.3449 20.4721C10.3548 20.463 10.3646 20.4532 10.3752 20.4447L14.6094 16.7849C14.23 15.9172 14.1015 14.9604 14.2382 14.0233C14.375 13.0861 14.7717 12.206 15.3833 11.4829C15.9949 10.7597 16.7969 10.2225 17.6983 9.93197C18.5998 9.6415 19.5646 9.60945 20.4833 9.83948C20.578 9.86322 20.6649 9.9112 20.7354 9.9787C20.806 10.0462 20.8577 10.1309 20.8856 10.2245C20.9135 10.3181 20.9165 10.4173 20.8945 10.5124C20.8724 10.6075 20.8259 10.6952 20.7596 10.7669L18.125 13.6251L18.523 15.4778L20.375 15.8751L23.2332 13.237C23.3049 13.1707 23.3926 13.1242 23.4877 13.1021C23.5828 13.0801 23.6821 13.0831 23.7756 13.111C23.8692 13.1389 23.9539 13.1906 24.0214 13.2612C24.0889 13.3317 24.1369 13.4186 24.1606 13.5133C24.2616 13.9178 24.3126 14.3332 24.3125 14.7501Z" fill="#1F8459"/>
</svg>
