<svg width="20" height="23" viewBox="0 0 20 23" fill="none" xmlns="http://www.w3.org/2000/svg">
<path fill-rule="evenodd" clip-rule="evenodd" d="M11.3482 0.681651C11.9763 0.0535041 12.9947 0.0535041 13.6229 0.681651L19.505 6.56387L13.5961 12.2043C12.9535 12.8176 11.9354 12.794 11.322 12.1514C10.7087 11.5088 10.7323 10.4907 11.3749 9.87731L13.1891 8.14556H9.2686C6.12987 8.14556 3.5854 10.69 3.5854 13.8288C3.5854 16.9675 6.12987 19.5119 9.2686 19.5119H17.2036C18.0918 19.5119 18.8122 20.232 18.8122 21.1205C18.8122 22.0087 18.0918 22.7288 17.2036 22.7288H9.2686C4.35321 22.7288 0.36853 18.7442 0.36853 13.8288C0.36853 8.91337 4.35321 4.92866 9.2686 4.92866H13.3205L11.3482 2.95635C10.72 2.32821 10.72 1.3098 11.3482 0.681651Z" fill="#1F8459"/>
</svg>
